# xmcd CD database file
#
# Track frame offsets:
#	150
#	20882
#	45513
#	83681
#	108024
#	130695
#	151993
#	163311
#	193855
#	210664
#	237264
#	265512
#	272942
#
# Disc length: 3946 seconds
#
# Revision: 1
# Processed by: cddbd v1.5.2PL0 Copyright (c) Steve Scherf et al.
# Submitted via: CDex 1.70beta2
#
DISCID=ac0f680d
DTITLE=Quantic and His Combo Bárbaro - Tradition in Transition - BRC-235
DYEAR=2008
DGENRE=Classical
TTITLE0=The Dreaming Mind (Part 1)
TTITLE1=Más Pan
TTITLE2=Linda Morena
TTITLE3=Undelivered Letter
TTITLE4=Un Conto a Mi Tierra
TTITLE5=Mambo Los Quantic
TTITLE6=Albela
TTITLE7=New Morning
TTITLE8=I Just Fell In Love Again
TTITLE9=Conção do Deserto
TTITLE10=Arianita
TTITLE11=The Dreaming Mind (Part 2)
TTITLE12=Undelivered Letter (Alfredo's Bossa Version)
EXTD=YEAR: 2008
EXTT0=
EXTT1=
EXTT2=
EXTT3=
EXTT4=
EXTT5=
EXTT6=
EXTT7=
EXTT8=
EXTT9=
EXTT10=
EXTT11=
EXTT12=
PLAYORDER=
